<svg width="24" height="24" viewBox="0 0 24 24" fill="none" xmlns="http://www.w3.org/2000/svg">
<path d="M23 12.5642C23 6.72978 18.299 2 12.5 2C6.70105 2 2 6.72978 2 12.5642C2 17.837 5.83972 22.2075 10.8594 23V15.6179H8.19336V12.5642H10.8594V10.2368C10.8594 7.58911 12.427 6.12663 14.8254 6.12663C15.9742 6.12663 17.1758 6.33296 17.1758 6.33296V8.93274H15.8518C14.5474 8.93274 14.1406 9.74708 14.1406 10.5826V12.5642H17.0527L16.5872 15.6179H14.1406V23C19.1603 22.2075 23 17.8371 23 12.5642Z" fill="white"/>
<path d="M16.4103 15.4903L16.8767 12.4369H13.9589V10.4555C13.9589 9.62001 14.3665 8.80583 15.6734 8.80583H17V6.20631C17 6.20631 15.7961 6 14.645 6C12.2419 6 10.6712 7.46233 10.6712 10.1097V12.4369H8V15.4903H10.6712V22.8717C11.215 22.9572 11.7646 23.0001 12.3151 23C12.8655 23.0001 13.4151 22.9572 13.9589 22.8717V15.4903H16.4103Z" fill="#2E2E2E"/>
</svg>
